# xmcd
#
# Track frame offsets: 
#        150
#        16729
#        38622
#        52986
#        88966
#        109171
#        126983
#        151730
#        192639
#        219466
#        244227
#        272959
#
# Disc length: 4143 seconds
#
# Revision: 0
# Processed by: cddbd v1.5.2PL0 Copyright (c) Steve Scherf et al.
# Submitted via: ExactAudioCopyFreeDBPlugin 1.0
#
DISCID=a6102d0c
DTITLE=Georg Schroeter and Marc Breitfelder - 18. Dixieland Jubilee
DYEAR=2014
DGENRE=Blues
TTITLE0=C Jam Blues
TTITLE1=Same Old Blues
TTITLE2=Glory Blues
TTITLE3=Station to Station
TTITLE4=Cocaine
TTITLE5=Rockin' U.S.A.
TTITLE6=Talk to me
TTITLE7=Can't be satisfied
TTITLE8=Summertime
TTITLE9=Long as I can see the light
TTITLE10=Shake your Boogie
TTITLE11=Amazing - Amazing Grace
EXTD=
EXTT0=
EXTT1=
EXTT2=
EXTT3=
EXTT4=
EXTT5=
EXTT6=
EXTT7=
EXTT8=
EXTT9=
EXTT10=
EXTT11=
PLAYORDER=
